<svg xmlns="http://www.w3.org/2000/svg" xmlns:xlink="http://www.w3.org/1999/xlink" width="800" height="800" viewBox="0 0 211.667 211.667"><defs><linearGradient id="d"><stop offset="0" stop-color="#0068b7"/><stop offset="1" stop-color="#0068b7" stop-opacity=".502"/></linearGradient><linearGradient id="c"><stop offset="0" stop-color="#0068b7" stop-opacity=".502"/><stop offset="1" stop-color="#0068b7"/></linearGradient><linearGradient id="b"><stop offset="0" stop-color="#0068b7" stop-opacity=".502"/><stop offset="1" stop-color="#0068b7"/></linearGradient><linearGradient id="a"><stop offset="0" stop-color="#f39800"/><stop offset="1" stop-color="#f39800" stop-opacity="0"/></linearGradient><radialGradient xlink:href="#a" id="h" cx="132.292" cy="132.292" fx="132.292" fy="132.292" r="53.049" gradientTransform="matrix(1.49626 0 0 1.49626 -92.11 -39.193)" gradientUnits="userSpaceOnUse"/><linearGradient xlink:href="#b" id="g" x1="63.5" y1="171.979" x2="132.292" y2="79.375" gradientUnits="userSpaceOnUse" gradientTransform="translate(-26.458 26.458)"/><linearGradient xlink:href="#c" id="e" x1="132.292" y1="52.917" x2="201.083" y2="171.979" gradientUnits="userSpaceOnUse" gradientTransform="translate(-26.458 26.458)"/><linearGradient xlink:href="#d" id="f" x1="63.5" y1="171.979" x2="201.083" y2="171.979" gradientUnits="userSpaceOnUse" gradientTransform="translate(-26.458 26.458)"/><clipPath id="i"><path d="M185.208 132.292a52.917 52.917 0 0 1-52.916 52.916 52.917 52.917 0 0 1-52.917-52.916 52.917 52.917 0 0 1 52.917-52.917 52.917 52.917 0 0 1 52.916 52.917z" fill="none" stroke="#000" stroke-width=".265" stroke-linejoin="round"/></clipPath></defs><path d="M174.571 145.523c26.46-45.83-15.821-119.065-68.738-119.065-52.916 0-95.198 73.236-68.74 119.064 26.457 45.825 111.022 45.824 137.478.001z" fill="#fff"/><path d="M105.833 79.375c-52.916 0-95.198 73.236-68.74 119.062 26.457 45.827 88.108 32.597 114.567-13.23H60.007c-26.457-45.826-7.09-105.832 45.826-105.832z" fill="url(#e)" transform="translate(0 -52.917)"/><path d="M174.573 198.437c26.458-45.827-15.823-119.062-68.74-119.062-52.916 0-72.283 60.006-45.826 105.835l45.826-79.377c52.917 0 95.198 46.777 68.74 92.604z" fill="url(#f)" transform="translate(0 -52.917)"/><path d="M37.093 198.439c26.457 45.825 111.022 45.824 137.48-.002 26.458-45.827-15.823-92.604-68.74-92.604l45.827 79.377C125.2 231.034 63.55 244.264 37.093 198.44z" fill="url(#g)" transform="translate(0 -52.917)"/><path d="M158.75 105.833a52.917 52.917 0 0 1-52.917 52.917 52.917 52.917 0 0 1-52.916-52.917 52.917 52.917 0 0 1 52.916-52.916 52.917 52.917 0 0 1 52.917 52.916z" fill="#fff"/><path d="M158.75 158.75a52.917 52.917 0 0 1-52.917 52.917 52.917 52.917 0 0 1-52.916-52.917 52.917 52.917 0 0 1 52.916-52.917 52.917 52.917 0 0 1 52.917 52.917z" fill="url(#h)" transform="translate(0 -52.917)"/><g><g clip-path="url(#i)" transform="translate(-26.458 -26.458)"><path d="M38.178 155.954l.08-29.254 1.27-.381c.7-.21 1.942-.69 2.761-1.067.82-.378 1.595-.686 1.722-.686s.464-.211.75-.47c.285-.258 1.678-1.166 3.095-2.018 2.2-1.323 2.824-1.551 4.269-1.566.93-.01 2.824-.309 4.208-.665 1.508-.387 2.707-.541 2.99-.382.305.17.978-.004 1.896-.493.783-.416 1.795-.762 2.249-.77.969-.017 3.499-.666 4.104-1.054.616-.394 6.663-1.066 8.196-.91.723.073 1.648-.046 2.057-.265.409-.218 1.175-.442 1.702-.496 2.631-.269 3.642-.51 4.014-.958.296-.357.733-.44 1.602-.3.735.117 1.657.01 2.396-.277 3.365-1.31 6.23-1.736 12.474-1.859 3.405-.067 6.548.01 6.985.172.436.16 1.365.42 2.063.576 3.437.766 6.14 1.291 7.144 1.389.611.059 2.025.348 3.142.643l2.03.537 1.304-.932c1.406-1.006 4.622-2.684 5.907-3.083.436-.136 1.348-.597 2.025-1.024 1.493-.943 1.405-.954 9.087 1.15 3.23.885 7.874 1.908 10.319 2.274 2.445.366 4.873.824 5.397 1.016.524.193 1.524.362 2.223.375.698.013 1.698.184 2.222.38s2.024.67 3.334 1.052 2.953.959 3.651 1.28a35.666 35.666 0 0 0 5.715 2.096c2.745.763 5.536 1.74 6.893 2.411.648.321 1.436.583 1.751.583.315 0 1.123.295 1.795.655.673.36 1.414.582 1.647.493.404-.155 3.223.685 5.464 1.627.572.241 1.33.346 1.682.234.354-.112.814-.067 1.024.1.21.167 1.039.399 1.842.515.803.116 2.232.507 3.175.87 1.997.766 6.347 1.856 7.411 1.856.404 0 .913.215 1.13.477.263.316.975.476 2.124.476.95 0 1.996.143 2.324.319.41.22.849.204 1.41-.052.626-.286.98-.283 1.532.012.395.211 1.036.408 1.426.438l.709.053v54.157H38.097z" fill="#094" fill-opacity=".941"/><path d="M102.852 164.048l-.319-.84-.725.682c-.829.778-1.648.879-2.018.248-.404-.69-2.246-1.527-2.49-1.132-.115.186-.405.263-.645.171s-.655.147-.923.53l-.489.697-2.003-.719c-1.102-.395-2.73-.804-3.615-.909-1.425-.169-1.654-.112-1.973.484-.46.858-1.408.865-2.198.017-.538-.577-.7-.606-1.305-.238-.623.38-.764.33-1.437-.506-.729-.904-.766-.913-1.566-.39-.45.296-.818.677-.818.848 0 .623-.66.288-.953-.484-.366-.964-1.274-1.031-2.068-.154-.348.384-.803.568-1.14.46-.365-.115-.685.05-.909.467-.304.568-.608.635-2.546.558-1.21-.048-2.295-.181-2.41-.296-.114-.114-.549.016-.967.29-.59.387-.951.423-1.63.165-1.234-.47-4.187-.665-4.418-.291-.291.471-4.107.022-5.176-.61-.687-.405-1.027-.453-1.344-.19-.233.193-1.53.348-2.884.342-2.114-.008-2.506-.097-2.793-.634-.26-.485-.537-.58-1.246-.424-.501.11-1.19.051-1.532-.131-.469-.251-.715-.218-1.01.137-.592.714-.894.575-1.403-.641-.449-1.075-1.204-1.448-1.608-.794-.108.174-.493.317-.857.317-.363 0-.83.233-1.038.517-.299.408-.513.444-1.027.169-.525-.281-.757-.228-1.214.277-.311.344-.901.625-1.31.625H38.1V145.52c0-11.855.104-17.145.336-17.145.185 0 .232.178.104.397-.127.218.054.147.404-.16.349-.305.804-.555 1.01-.555.469 0 1.563-.616 2.397-1.35.347-.305.909-.555 1.248-.555.34 0 1.09-.501 1.669-1.115.578-.613 1.668-1.379 2.423-1.702.754-.324 1.566-.822 1.803-1.108.61-.734 1.147-.646 1.558.256.31.68.472.742 1.307.502.8-.23.986-.175 1.148.336.106.335.3.609.431.609.88 0 4.083-.758 4.437-1.05.237-.195 1.023-.383 1.746-.417 1.921-.09 4.384-.575 5.21-1.026.6-.327.75-.31.906.098.269.7.756.606.756-.145 0-.415.211-.635.609-.635.353 0 .897-.466 1.296-1.111.812-1.315 1.028-1.363 1.57-.35.487.91 1.786 1.232 3.242.804.584-.171 1.565-.229 2.181-.129.913.149 1.254.041 1.838-.58.511-.545.95-.72 1.526-.61 1.021.196 2.896-.353 5.45-1.594 1.78-.864 2.082-.924 2.778-.551.898.48 1.123 1.78.251 1.445-.356-.136-.827.12-1.429.78-.493.54-.897 1.02-.897 1.067 0 .046.436.02.97-.059.561-.082 1.18-.46 1.465-.897.272-.415.729-.758 1.014-.761.286-.003 1.148-.432 1.916-.952.769-.521 1.652-.947 1.963-.947.312 0 .657-.286.768-.635.13-.412.48-.635.995-.635 1.125 0 2.032.555 1.817 1.113-.101.265.042.554.33.664.896.344.546.763-.637.763-1.066 0-1.131.055-.944.8.142.567.056.857-.295.992-.454.174-1.425 1.68-1.425 2.21 0 .123.25-.002.556-.277.305-.275 1.054-.547 1.664-.605.837-.078 1.21-.314 1.517-.958.224-.47.676-.94 1.005-1.044.328-.105.677-.399.775-.654.098-.255.41-.464.694-.464.283 0 .889-.294 1.345-.653.555-.437 1.082-.59 1.589-.463.417.105.94.04 1.161-.144.49-.406 1.508.067 2.877 1.34.516.48 1.107.872 1.313.872.205 0 .432.175.503.39.193.578 2.823.308 3.3-.34.335-.453.41-.46.543-.05.57 1.754.53 2.25-.247 2.97-1.01.934-1.619 2.445-1.114 2.757.673.416.18 1.412-.752 1.519-.641.074-1.025.394-1.39 1.16-.278.582-.842 1.211-1.254 1.4-.413.187-.75.545-.75.795s-.4.793-.89 1.205c-.931.783-1.52 1.847-1.024 1.847.16 0 .39-.163.512-.36.148-.24.405-.12.767.36l.544.721 1.662-1.313c.913-.722 1.898-1.318 2.188-1.325.65-.014 1.97-1.13 2.678-2.264.291-.467 1.099-1.168 1.796-1.56.696-.391 1.2-.819 1.12-.95-.304-.49.265-1.247.936-1.247.784 0 1.459-.549 1.459-1.186 0-.645 2.566-3.11 3.703-3.554.582-.229 1.078-.692 1.182-1.103.247-.985 2.253-2.98 3.121-3.103.421-.06.765-.365.832-.737.168-.941.62-1.305 1.068-.858.481.482.889.49.889.017 0-.2.51-.986 1.132-1.746 1.227-1.498 1.7-1.62 4.022-1.049.745.184 2.783.673 4.53 1.087 1.746.415 3.949.973 4.895 1.24.947.267 3.733.792 6.191 1.167 2.46.375 4.972.887 5.584 1.14.612.25 1.684.43 2.381.398 1.55-.072 8.61 2.218 11.27 3.656.436.236 1.84.664 3.117.952 1.279.287 2.922.785 3.652 1.106 2.661 1.17 5.463 2.258 5.815 2.257.198-.001.77.212 1.27.473.5.26 1.24.475 1.643.476.799.002 3.591.801 4.754 1.36.4.192 1.257.358 1.905.369.65.01 1.394.157 1.655.325.262.168.976.331 1.588.363.611.032 2.398.483 3.97 1.003 1.57.52 3.785 1.127 4.92 1.35 1.136.222 2.353.663 2.706.98.5.448 1.021.548 2.356.448.943-.07 1.968.008 2.277.174.37.197.838.175 1.365-.065.701-.32.882-.27 1.426.395.54.66.711.709 1.276.365.358-.219.724-.397.814-.397.09 0 .163 5.072.163 11.271 0 7.447-.11 11.271-.324 11.271-.178 0-.262.34-.186.757.109.6.02.726-.425.61-.412-.108-.742.218-1.238 1.222-.568 1.147-.837 1.376-1.666 1.418-.544.027-1.397.351-1.896.72-.956.707-3.273.932-3.631.353-.108-.174-.731-.317-1.384-.317-.654 0-1.358-.17-1.565-.377-.29-.29-.569-.2-1.218.397-.494.454-.894.628-.968.422-.07-.194-.334-.622-.586-.953-.446-.581-.466-.578-.661.114-.11.393-.292.709-.402.702-.11-.007-.77-.733-1.464-1.613-1.26-1.597-1.264-1.599-1.81-.924-.66.815-.49 1.39.55 1.864 1.36.62.943 1.464-1.704 3.459-.792.596-1.092.658-1.877.384-.64-.223-1.206-.222-1.801.004-1.18.45-1.144.475-1.144-.83 0-1.152-.005-1.156-.654-.568-.655.592-.964.451-1.338-.61-.053-.152-.662-.295-1.354-.318l-1.258-.043.06 1.35c.035.773-.083 1.35-.275 1.35-.184 0-.258.293-.164.652.249.953-1.141 1.426-2.693.915-.642-.211-1.427-.274-1.746-.14-.926.391-3.37.48-3.782.137-.249-.207-.894-.198-1.895.027-.835.187-1.694.273-1.908.19-.214-.082-1.479-.045-2.81.082-1.33.127-2.55.15-2.71.05-.162-.1-.442-.57-.623-1.047-.37-.971-1.29-1.147-2.046-.39-.262.261-.808.477-1.213.478-.406 0-1.133.208-1.617.46-.984.514-4.392.475-7.8-.089-1.105-.183-2.195-.262-2.421-.175-.508.195-1.758-1.336-1.758-2.152 0-.493-.154-.56-.873-.384-.48.117-.92.334-.979.481-.12.306-1.646.01-2.1-.407-.507-.464-.723-.316-.91.621-.159.79-.316.895-1.31.874-.94-.02-1.129-.14-1.13-.718a.932.932 0 0 0-.667-.905c-.744-.236-1.123.036-1.287.922-.176.948-2.283.942-3.11-.01-.74-.85-2.078-.986-2.364-.24-.106.275-.193.857-.193 1.292 0 .583-.146.763-.555.685-.406-.078-.641-.604-.874-1.957-.399-2.323-1.313-3.213-3.004-2.927-.618.104-1.373.196-1.678.205-.306.009-.556.225-.556.48 0 .256-.345.596-.767.756-.421.16-.863.596-.98.968-.198.62-.26.635-.767.177-.742-.672-.876-.635-1.11.302-.25.996-1.426 2.214-1.786 1.85-.147-.149-.311-.976-.365-1.84-.094-1.484-.156-1.583-1.165-1.843-.811-.209-1.197-.156-1.613.22-.3.271-.756.494-1.013.494-.257 0-.622.155-.812.344-.247.248-.617.204-1.315-.157-1.05-.543-1.214-.44-1.637 1.028-.226.784-.263.8-.491.214-.575-1.477-3.158-2.802-2.941-1.509.073.437-.133.556-.96.556-.673 0-1.166.2-1.365.556-.172.305-.586.555-.92.555-.335 0-.768.3-.964.665-.225.42-.568.61-.93.515-.385-.1-.689.1-.919.605-.28.614-.584.755-1.629.755-1.097 0-1.33-.122-1.604-.84zm82.568-2.285c0-.36-1.234-1.462-1.423-1.272-.21.21.76 1.54 1.123 1.54.165 0 .3-.12.3-.268zm-86.532-25.685c.924-.996 1.1-1.716.226-.925-.319.289-.882.525-1.25.525-.838 0-1.255.613-.67.983.658.418.818.362 1.694-.583zm5.252-.915c0-.512-.821-.589-1.12-.104-.114.183-.12.556-.016.829.154.402.282.422.663.105.26-.216.473-.59.473-.83zm-1.912-.591c1.064-.672 1.912-1.635 1.912-2.173 0-.279-.956-.51-1.402-.338-.496.19-2.09 2.46-2.09 2.976 0 .469.188.413 1.58-.465zm33.39-16.633c.568-1.495-.382-5.12-1.343-5.12-.428 0-.468.234-.259 1.507.137.83.257 2.044.268 2.7.016 1.063-.066 1.19-.775 1.19-.437 0-.794.142-.794.315 0 .173.584.292 1.298.264 1.075-.042 1.35-.19 1.604-.856zm-2.268-5.756a.318.318 0 0 0-.318-.317.318.318 0 0 0-.317.317.318.318 0 0 0 .635 0zm-78.581 10.16c-.108-.174.026-.317.299-.317.272 0 .495.143.495.317 0 .175-.135.318-.3.318-.164 0-.386-.143-.494-.318zm62.388-1.587c.974-.761 1.73-.83 1.463-.133-.106.276-.193.562-.193.635 0 .073-.464.13-1.031.126l-1.032-.007zm-5.132-3.535c-.995-.365-1.376-1.13-.867-1.744.478-.576 1.211-.555 1.44.04.1.262.435.476.745.476.816 0 1.358.743.886 1.214-.438.438-1.036.442-2.204.014zm4.18-1.092c0-.296.216-.458.53-.397.796.154.905.896.131.896-.39 0-.661-.205-.661-.5z" fill="#8fc31f"/><path d="M38.1 170.603a.318.318 0 0 1 .635 0 .318.318 0 0 1-.317.318.318.318 0 0 1-.318-.318zm65.3-6.244c-.374-.373-.227-1.693.187-1.693.508 0 1.271 1.196 1.021 1.6-.217.351-.898.404-1.209.093zm65.621-.36c-.495-.072-.738-.397-.887-1.19-.151-.807-.407-1.141-.984-1.286-.43-.108-.78-.395-.78-.638s-.143-.442-.318-.442a.326.326 0 0 0-.317.333c0 .387-1.552 1.89-1.951 1.89-.15 0-.271-.214-.271-.476s-.25-.472-.556-.466c-.746.014-1.984 1.08-1.984 1.707 0 .283-.264.505-.598.505-.72 0-1.088-1.129-.642-1.963.443-.827.081-1.294-.685-.884-.394.21-.615.664-.615 1.26 0 1.197-.99 1.822-1.725 1.087-.274-.274-.498-.634-.498-.8 0-.504-1.641-.996-2.028-.609-.239.239-.495.13-.871-.37-.454-.6-.61-.643-1.04-.286-.421.35-.506.347-.504-.016.004-.643 1.443-1.243 1.902-.792.268.264.468.213.772-.199.226-.306.716-.556 1.09-.556.562 0 .679-.187.679-1.092 0-.601-.173-1.2-.384-1.33-.248-.153-.06-.324.53-.482.679-.181 1.01-.114 1.285.262.26.356.69.46 1.44.35.818-.12 1.193-.004 1.595.493.518.639.538.628 1.284-.691.537-.947.921-1.3 1.314-1.2.885.22 1.034-.472.232-1.077l-.732-.552.66-.354c.364-.194 1.09-.268 1.616-.163.752.15 1.042.05 1.372-.479.522-.836.72-.836 1.499 0 .703.754 1.306.567 1.306-.405 0-.462.146-.594.503-.457.276.106.562.192.635.192.073 0 .132.206.132.458 0 .605.537.914 1.032.593.219-.141.965-.257 1.66-.257h1.262l.224-1.539c.123-.846.313-1.628.422-1.737.32-.32.734.595.563 1.248-.195.747.911.839 1.504.125.317-.382.296-.623-.104-1.234-.562-.858-.346-1.338.345-.764.363.3.519.268.759-.162.406-.726.906-.685.906.073 0 .338.286.704.635.815.718.228.795.507.282 1.02-.195.195-.258.509-.14.699.3.485 1.049.43 1.35-.101.4-.704 1.482-.757 1.62-.08.136.656 1.3 1.934 1.544 1.691.086-.086-.085-.527-.381-.98-.333-.508-.474-1.154-.368-1.694.236-1.204-1.166-2.749-2.06-2.27-1.153.617-2.8-.437-2.8-1.792 0-.734-.079-.76-2.063-.702-1.745.052-2.064.148-2.064.627 0 .358-.238.566-.649.566-.44 0-.619.177-.556.553.075.443-.103.534-.896.457-.778-.076-1.026.044-1.16.558-.197.748-1.17.865-2.15.258-.528-.327-.693-.314-.935.076-.235.377-.375.394-.69.08-.564-.565-1.648-.487-2.526.182-.934.712-2.751 1.46-3.584 1.476-.428.008-.704.327-.886 1.023-.359 1.38-1.132 1.529-2.94.567-1.381-.734-1.575-.765-2.064-.321-.609.55-1.47.641-1.752.185-.103-.167-.383-.229-.621-.137-.239.091-.529.014-.644-.173-.115-.186-.422-.34-.681-.34-.372 0-.427.253-.258 1.192.296 1.644.652 1.984 2.076 1.984 1.02 0 1.231.11 1.231.635 0 .686-.503.872-.707.261-.183-.55-.88-.004-.88.691 0 1.11-.586.97-1.306-.313-.756-1.344-1.76-1.797-1.389-.626.149.469-.016.824-.595 1.279-.44.346-.89.911-1 1.256-.129.407-.48.627-1.005.627-.58 0-.755.131-.627.467.152.395-.199.443-2.241.312-1.332-.085-2.63-.328-2.886-.54-.382-.317-.702-.122-1.814 1.106l-1.35 1.491-1.624-.783c-.892-.43-1.816-.783-2.053-.783-.237 0-1.048-.447-1.802-.994-.754-.546-1.795-1.027-2.312-1.067-.518-.041-1.07-.304-1.227-.584-.201-.36-.55-.457-1.188-.33-.497.1-1.222.01-1.612-.198-1.013-.542-1.51.024-1 1.142.498 1.092.29 1.258-.938.749-.63-.26-1.166-.808-1.444-1.472-.474-1.134-1.06-1.407-1.078-.5-.014.733-1.156 2.085-1.554 1.84-.172-.107-.232-.406-.132-.664.099-.259-.002-.69-.225-.958-.341-.411-.295-.518.295-.672.62-.162.854-.821.27-.76-.127.012-.677.023-1.223.023-.925 0-.98.062-.809.918.166.83.092.933-.766 1.059-.522.076-1.194-.047-1.493-.274-.797-.606-1.02-.527-1.02.36 0 .502-.18.794-.486.794-.268 0-.567.21-.665.466-.131.342-.633.447-1.892.397-1.412-.057-1.715-.17-1.717-.64-.002-.314.355-.901.791-1.306.844-.782.993-1.14.476-1.14-.366 0-1.585 1.155-1.592 1.509-.012.587-.568 1.036-1.052.85-.552-.212-.752-1.406-.236-1.406.561 0 1.293-1 1.293-1.769 0-.424-.25-1.024-.556-1.333-.305-.31-.901-1.31-1.324-2.223-.423-.913-.887-1.66-1.032-1.66-.145 0-.263-.285-.263-.635 0-.358.212-.635.486-.635.268 0 .569-.214.67-.476.234-.611 2.019-.645 2.019-.039 0 .24-.214.615-.476.833-.414.343-.355.52.45 1.343.51.521 1.066.863 1.235.758.413-.255.928.42 1.062 1.391.076.546.309.794.745.794.922 0 1.047-1.736.182-2.52l-.643-.581.707-.746c.389-.41.94-.748 1.223-.751.75-.008 1.315.814 1.076 1.567-.162.512-.067.65.45.65.474 0 .656-.204.656-.734 0-1.018 1.138-3.275 1.774-3.519.688-.264 3.274 1.355 3.495 2.19.165.618 3.105 2.698 3.816 2.698.38 0 1.64 1.807 2.27 3.254.38.874 1.135 1.153 1.504.556.298-.481 1.617-.38 2.064.159.217.262.602.476.855.476s.681.221.952.491c.27.27.571.411.67.313.098-.098-.311-.684-.91-1.3-.597-.618-1.233-1.652-1.412-2.298-.327-1.183-1.126-1.788-3.418-2.587-.57-.198-1.05-.68-1.276-1.279-.211-.559-.592-.96-.912-.96-.302 0-1.444-.858-2.539-1.906-1.094-1.048-2.28-1.993-2.636-2.1-.355-.107-.931-.452-1.28-.767-.356-.32-1.264-.618-2.064-.678-1.356-.1-1.425-.065-1.357.688.039.437-.008.616-.106.397-.098-.218-.416-.401-.707-.407-.559-.01-1.784-.814-1.82-1.194-.048-.505-1.04-2.417-1.064-2.05-.036.552-1.97.504-3.085-.077-1.17-.61-1.991-.604-2.682.02-.5.454-.64.454-1.513.003-.528-.274-1.05-.641-1.158-.817-.329-.531-1.402-.36-1.98.315-.3.35-.852.635-1.229.635-.376 0-.89.31-1.143.69-.3.454-.641.621-.99.487-.736-.282-.667-1.152.16-2.034.971-1.032.442-1.481-1.288-1.092-.732.164-1.72.183-2.194.043-.474-.141-1.326-.4-1.893-.576-.67-.207-1.098-.21-1.223-.009-.105.17-.142.34-.08.375 1.188.69 3.354 1.48 4.058 1.48.859 0 .928.1 1.137 1.622.178 1.29.117 1.728-.298 2.143-.484.483-.588.483-1.44-.005-.869-.499-.947-.495-1.467.08-.66.728-1.085.78-1.085.13 0-.262-.127-.476-.281-.476-.424 0-1.307 1.48-1.307 2.19 0 .521-1.15 1.295-1.39.934-1.12-1.68-1.138-1.767-.507-2.338.337-.304.543-.666.458-.803-.145-.234.091-.514 1.27-1.504.284-.239.487-.924.487-1.645 0-.992-.173-1.354-.874-1.833-1.14-.78-2.462-.845-3.59-.178-.86.507-.943.505-1.556-.05-.735-.665-.76-.779-.326-1.44.27-.413.353-.415.607-.02.535.832 5.104.53 5.104-.337 0-.586-1.008-.99-1.691-.68-.537.245-.876.215-1.334-.12-.376-.275-.955-.375-1.494-.256-.67.147-.879.074-.879-.309 0-.29-.268-.501-.635-.501-.838 0-.826-.91.031-2.363.718-1.217 1.41-1.533 1.08-.495-.144.455-.057.635.306.635.28 0 .588-.25.686-.555.503-1.575.827-1.945 1.393-1.591.437.273.742.2 1.43-.341.481-.378 1.075-.688 1.32-.688.246 0 1.026-.295 1.735-.657 1.382-.705 1.894-.623 1.215.195-.231.279-.68.438-.999.355-.772-.202-1.234.664-.828 1.555.217.476.205.903-.038 1.356-.295.55-.247.72.285 1.004.351.188.657.266.679.172a6.15 6.15 0 0 0 .08-.487c.02-.175.146-.318.277-.318h.54c.463 0 1.017 2.3.644 2.674-.523.522-.347 1.73.303 2.078.338.18.99.328 1.45.328.46 0 1.101.143 1.426.317.76.406 1.484.124 1.688-.656.213-.814.632-.776 1.017.092.327.735 2.44 1.424 2.642.86.176-.491.832-.333 1.408.34.615.718 1.505.823 2.082.246.413-.413 2.913-.564 2.913-.175 0 .427 1.803 1.166 2.44 1 .404-.106 1.013.156 1.694.73.585.491 1.324.85 1.642.796.318-.054.664.126.769.399.243.634 1.075.65 1.075.02 0-.523.169-.552 1.099-.188.381.149 1.24.017 2.218-.34.877-.32 1.883-.595 2.235-.608.455-.018.502-.076.163-.2-.262-.097-.714-.383-1.005-.636-.402-.349-.683-.378-1.167-.119-.35.188-1.362.497-2.249.687-.886.19-1.612.476-1.612.637 0 .378-.86.378-1.094 0-.323-.523.462-2.072 1.504-2.966.902-.775.961-.921.516-1.27-.276-.217-.594-.752-.706-1.188-.138-.542-.616-.966-1.507-1.337-1.37-.57-1.443-1.203-.138-1.203.417 0 .873-.194 1.013-.43.345-.585 1.682-1.27 1.682-.863 0 .175-.285.47-.635.658-.777.416-.812.816-.093 1.092.656.252 2.634-.753 2.634-1.338 0-.304.295-.363 1.079-.216.806.152 1.15.076 1.36-.3.24-.43.434-.447 1.309-.117.73.276.968.528.823.871-.868 2.054-.9 2.252-.492 2.906.328.525.335.854.034 1.58-.312.754-.29 1.05.12 1.678.47.716.46.773-.154.933-.36.094-.592.36-.516.59.174.529 1.517.747 1.517.246 0-.208.219-.289.496-.183.312.12.824-.168 1.38-.778.716-.783 1.046-.928 1.727-.757.662.166.842.097.842-.326 0-.722.768-.432.891.336.221 1.375.372 1.531.863.896.46-.594.477-.594.944.012.398.515.676 1.765.393 1.765-.046 0-.824-.27-1.728-.601-1.554-.568-1.671-.571-2.139-.055-.845.935-.59 1.29.923 1.29 1.077 0 1.497.148 1.746.615.473.882.463.892-1.02 1.05-1.017.11-1.514-.002-2.015-.451-.398-.357-.881-.513-1.204-.39-.767.295-.425.94.445.839.4-.047.973.136 1.27.406.3.27 1.277.578 2.174.684 1.352.16 1.632.108 1.632-.304 0-.779.945-1.58 1.41-1.194.596.495 2.118-.31 2.01-1.063-.086-.596-.512-.935-1.595-1.27-.631-.195-.762-1.752-.23-2.745.23-.431.21-.79-.072-1.241-.313-.5-.314-.717-.007-1.023.214-.214.389-.7.389-1.08 0-.827-1.156-3.566-1.83-4.336-.332-.38-.383-.673-.163-.952.505-.64.76-3.786.347-4.283-.268-.323-.266-.527.008-.8.202-.203.368-.63.368-.948 0-1.066 2.347-1.438 4.604-.73.394.124 1.227-.115 2.19-.627 1.087-.578 1.656-.726 1.889-.493.183.184.52.334.746.334.653 0 .48-.869-.278-1.4-.61-.428-.646-.582-.305-1.33.6-1.318.349-1.368-1.518-.297-.456.261-1.713.445-3.096.452-2.578.014-2.903-.302-1.534-1.493.437-.38.794-.818.794-.974 0-.157.5-.378 1.111-.493.896-.168 1.112-.354 1.112-.954 0-.59.514-1.13 1.077-1.13.04 0 .065.665.054 1.48-.019 1.375.046 1.498.913 1.735.563.153 1.09.124 1.328-.073.284-.236.489-.148.738.317.19.354.538.57.775.479.237-.091.653.057.925.33.478.477 1.175.67 1.175.325 0-.093-.207-.665-.46-1.27-.479-1.145-.103-1.549.583-.629.309.414.538.417 1.828.025 1.372-.416 1.522-.404 2.143.175.368.342.668.831.668 1.086 0 .727 1.303.564 1.5-.188.23-.882 1.54-.729 1.46.171-.031.347.112.738.317.868.571.363 1.735.293 1.87-.113.086-.256.323-.234.82.077.875.546.897.92.056.92-.704 0-1.283.997-.693 1.194.2.066.883.473 1.517.903.753.511 1.376.712 1.796.578.39-.123.751-.034.917.227.523.826.273.992-1.187.792-2.248-.308-3.928-.891-3.928-1.364 0-.234-.147-.426-.328-.426-.468 0-.935 1.366-.591 1.73.476.506.318.893-.299.732-.474-.124-.554-.007-.432.633.134.703.07.761-.608.554-.417-.127-1.008-.451-1.314-.72-.61-.536-.778-.103-.188.487.279.278.272.483-.029.845-.3.362-.312.73-.05 1.524.298.904.615 1.141 2.33 1.743 1.168.41 2.34.624 2.848.518.657-.136 1.167.062 2.138.832.98.775 1.443.954 1.995.77 1.003-.336 2.205-.155 2.862.432.306.273.556.38.556.239 0-.67 1.31 1.033 1.587 2.063.248.92.607 1.32 1.679 1.87 2.212 1.138 3.129.275 1.817-1.71-1.163-1.762-1.235-1.903-1.428-2.817-.18-.848-.274-.899-1.369-.73-1.008.154-1.261.062-1.785-.65-.335-.456-.457-.735-.271-.62.8.494.592-.746-.262-1.564-.858-.822-1.019-.865-1.933-.52-1.095.413-2.462-.004-2.733-.835-.111-.341.237-.404 1.643-.296 1.94.148 2.117.016 1.15-.859-.35-.316-.635-.695-.635-.843 0-.451.85-.298 1.291.234.263.316.717.443 1.23.344.998-.194 2.606.74 3.545 2.059.528.74.845.913 1.418.769.559-.14.878.016 1.31.64 1.128 1.629 1.676 2.036 2.74 2.036.693 0 1.292-.252 1.746-.735.919-.978.87-1.43-.183-1.694-.48-.12-1.302-.48-1.826-.798-.524-.32-1.17-.581-1.435-.582-.266 0-.837-.658-1.27-1.462-.433-.804-1.119-1.59-1.524-1.747-.522-.203-.707-.493-.635-1 .157-1.1 1.423-1.114 2.504-.026 1.728 1.741 2.102 2.012 2.784 2.012.378 0 .688.142.688.317 0 .175.268.318.596.318.363 0 .75.372.991.952.433 1.046.979 1.21 1.588.476.513-.618 1.555-.611 1.794.012.273.711 2.013 1.546 2.405 1.154.453-.452.012-1.006-.805-1.012-1.212-.008-1.555-.416-1.18-1.403.255-.67.466-.822.886-.64.303.132 1.021.306 1.596.387.727.102 1.03.305.996.666-.096.991.026 1.09.65.526.721-.653 2.778-.485 3.928.32.366.257.924.467 1.24.467.316 0 .657.214.757.476.1.262.382.476.625.476.244 0 .443-.214.443-.476 0-.6.236-.603.828-.01.307.306.79.4 1.412.276.84-.168 2.312.205 4.586 1.162.349.147 1.76.518 3.135.825 1.374.308 3 .899 3.612 1.314.682.463 1.313.67 1.628.534.838-.36 3.003-.415 3.606-.092.366.196.792.176 1.227-.058.561-.3.804-.226 1.522.462.797.764.902.786 1.557.327l.703-.492-.081 11.052-.082 11.052h-1.649c-1.407 0-1.802.145-2.698.986-.578.543-1.316 1.08-1.64 1.194-.548.193-.555.262-.088.974.462.706.457.822-.065 1.466-.92 1.136-2.53.24-3.711-2.067-.524-1.023-.873-1.305-1.868-1.512-.801-.167-1.373-.13-1.656.104-.416.345-.911.3-2.103-.19-.43-.177-.555-.07-.555.474 0 .547-.123.651-.556.468-1.195-.505-2.389-.126-4.041 1.286-.915.782-1.893 1.421-2.173 1.421-.539 0-1.277 1.056-.96 1.372.272.272-.168 1.803-.517 1.803-.17 0-.265-1.36-.222-3.175.042-1.746 0-3.172-.093-3.168-.094.004-.384.46-.646 1.015-.656 1.39-1.145 1.431-1.573.134-.593-1.796-2.153-1.928-1.798-.152.102.51.014 1.201-.195 1.536-.36.575-.415.58-.976.071-.56-.507-.62-.506-.998.013-.222.303-.595.551-.829.551-.33 0-.34.085-.044.381.923.923.247.8-1.204-.22-.871-.612-1.701-1.113-1.845-1.113-.454 0-1.65 1.275-1.65 1.758 0 .695.879.56 1.11-.17.112-.35.463-.636.782-.636.637 0 1.204 1.032.666 1.211-.638.213-.333.734.371.635.54-.076.838.164 1.255 1.012.301.61.554 1.449.563 1.862.013.641-.09.716-.7.511-.392-.132-1.214-.223-1.825-.2-3.11.111-3.713.122-4.445.082-.436-.024-1.365.003-2.064.06-.795.064-1.39-.056-1.59-.322-.264-.35-.621-.326-2.063.142-.96.31-2.051.521-2.427.467zm5.781-1.82c-.705-.533-1.13-.598-1.13-.171 0 .161.25.36.556.439 1.038.271 1.192.2.574-.268zm-3.54-3.8c-.508-.775-1.4-1.09-1.4-.494 0 .323 1.248 1.288 1.666 1.288.14 0 .02-.357-.266-.793zm6.538.054c0-.464.296-.898.794-1.165 1.57-.84.58-1.783-1.19-1.133-.491.18-.874.56-.874.867 0 .3-.143.635-.318.743-.176.109-.319-.13-.321-.537-.008-1.343-.375-2.162-.967-2.162-.318 0-.673-.152-.788-.338-.138-.223-.404-.162-.782.18-.487.44-.675.456-1.248.1-1.372-.85-1.422 1.057-.07 2.676.377.452.552.481.943.159.293-.242.523-.273.592-.078.353 1 .632 1.145 1.469.764.684-.312.963-.29 1.558.125.995.694 1.202.66 1.202-.2zm-8.89-.496c0-.321-.967-.76-1.188-.538-.08.08-.051.297.064.483.253.41 1.124.453 1.124.055zm-32.702-.351c0-.175-.152-.318-.337-.318-.185 0-.248.143-.14.318.108.175.26.317.336.317.077 0 .14-.142.14-.317zm-20.266-.526c.673-.609.753-1.066.184-1.052-.647.017-1.589.873-1.363 1.24.285.46.5.427 1.179-.188zm65.033-.11c0-.174-.223-.317-.495-.317s-.407.143-.299.318c.108.175.33.317.495.317.165 0 .299-.142.299-.317zm2.223-.158c0-.262-.143-.476-.318-.476-.175 0-.317.214-.317.476s.142.476.317.476c.175 0 .318-.214.318-.476zm-13.335-.74c0-.414-.378-.689-.685-.5-.328.204-.045.764.386.764.164 0 .299-.12.299-.265zm15.24-.435c0-.513-.094-.604-.354-.345-.194.195-.257.509-.14.699.329.531.494.413.494-.354zm-71.12-.254c0-.352-.212-.635-.477-.635-.264 0-.476.283-.476.635 0 .353.212.635.476.635.265 0 .477-.282.477-.635zm3.46-.3c.41-.22.523-.567.417-1.286-.14-.956-.158-.966-.6-.333-.374.532-.576.588-1.101.307-.922-.493-1.017-.202-.253.77.747.95.764.956 1.537.542zm60.04-.97c0-.465-.212-.635-.794-.635-.934 0-1.005.247-.238.828.777.59 1.032.543 1.032-.193zm22.471-2.855c1.35-.424 1.366-.42 2.482.659 1.012.978 1.153 1.03 1.435.53.172-.306.646-.556 1.052-.556.908 0 1.578-.7 1.115-1.163-.218-.217.105-.617.995-1.234 1.215-.842 1.346-.87 1.713-.37.84 1.15 4.28.92 4.755-.319.197-.511-.29-1.027-.975-1.037-.197-.003-.535-.217-.75-.477-.216-.26-.505-.404-.642-.32-.31.193-2.219-1.557-2.219-2.034 0-.192-.321-.348-.714-.348-.751 0-2.617 2.395-2.845 3.65-.07.39-.323.6-.652.544-.295-.05-.89.14-1.324.424-.433.284-.945.419-1.138.3-.666-.412-4.098-.36-4.26.064-.118.305-.38.27-1.105-.146-1.822-1.046-2.17.797-.492 2.607.818.883.824.884 1.516.27.382-.34 1.306-.81 2.053-1.044zm-50.411.95c.385-.248.34-.308-.239-.312-.393-.003-.714.138-.714.312 0 .398.337.398.953 0zm-4.626-3.139c.095-.154-.026-.447-.271-.65-.495-.41-1.002.061-.66.614.243.393.699.411.93.036zm-3.947-.933c0-.144-.321-.562-.714-.929-.848-.791-2.461-1.276-2.461-.74 0 .198.434.446.964.552.53.106 1.106.46 1.281.786.32.599.93.816.93.331zm43.815-.513c0-.077-.143-.228-.318-.336-.174-.108-.317-.045-.317.14s.143.336.318.336c.174 0 .317-.063.317-.14zm-1.35-.695c.737-.197 1.031-1.387.343-1.387-.204 0-.613-.219-.908-.485-.412-.373-.73-.412-1.374-.167-.461.175-.838.438-.838.583 0 .41.74 1.247 1.27 1.436.658.235.702.236 1.508.02zm-47.069-1.705c-.108-.174-.482-.317-.831-.317-.35 0-.547.143-.439.317.108.175.482.318.831.318.35 0 .547-.143.44-.318zm55.654-1.027c.602-.993.386-1.388-.5-.913-.94.502-1.208 2.162-.3 1.86.155-.053.515-.478.8-.947zm-11.362-.243a.318.318 0 0 0-.318-.317.318.318 0 0 0-.317.317c0 .175.142.318.317.318a.318.318 0 0 0 .318-.318zm-51.435-2.982c0-.069-.215-.207-.477-.307-.262-.101-.476-.045-.476.124 0 .17.214.308.476.308s.477-.056.477-.125zm52.858-.183c.104-.17-.174-.625-.619-1.012-.602-.523-.707-.771-.41-.968.574-.38-.554-1.187-1.363-.975-.343.09-.825-.005-1.072-.21-.364-.303-.47-.234-.554.359-.068.477-.353.768-.819.834-1.299.185-.577 1.01.884 1.01.326 0 .707.198.847.44.408.71 2.747 1.102 3.106.522zm-26.226-1.71c.502-.605.128-.802-1.153-.607-.725.11-1.032.327-1.032.73 0 1.048 1.272.977 2.185-.123zm39.97-.582c-.196-.588-.88-.686-.88-.125 0 .276.226.502.503.502.276 0 .446-.17.377-.377zm-38.345-.258a.318.318 0 0 0-.318-.317.318.318 0 0 0-.317.317.318.318 0 0 0 .635 0zm-32.703-1.738c0-.676-.474-.83-1.116-.361-.828.606-.407 1.622.477 1.15.352-.189.64-.544.64-.79zm36.11.912c-.106-.106-.38-.117-.609-.026-.253.102-.178.177.192.192.334.014.522-.061.417-.167zm-1.82-.584c0-.505-.576-.977-.854-.699-.26.261.147 1.157.527 1.157.18 0 .327-.206.327-.458zm3.81.318c0-.335-.609-.476-.79-.183-.11.178.023.323.296.323.272 0 .494-.063.494-.14zm2.368-.79c.235-.38-.362-.757-.785-.496-.355.22-.122.79.322.79.155 0 .363-.132.463-.295zm-26.643-1.829c-.118-.47-.455-1.036-.749-1.26-.336-.255-.387-.41-.137-.416.443-.011.558-.963.116-.963-.155 0-.516.358-.802.794-.286.437-.373.794-.195.794.179 0 .325.333.325.74 0 .903.234 1.165 1.04 1.165.51 0 .58-.147.402-.854zm19.934.49c.324.27.582.134 1.112-.582.853-1.154.862-1.48.054-1.912-.349-.187-.635-.632-.635-.989 0-.566-.132-.62-1.031-.427-1.382.296-1.509.393-1.509 1.157 0 .56.14.628.953.466.801-.16.952-.091.952.436 0 .728-.113.76-.914.26-.324-.202-.822-.278-1.107-.169-.656.252-.681 1.171-.032 1.171.267 0 .57.218.672.485.143.373.286.4.625.12.32-.267.553-.27.86-.015zm5.843-.463c-.105-.105-.38-.117-.609-.025-.253.101-.178.177.192.192.335.014.523-.061.417-.167zm-21.56-.655c-.155-.797-.896-.906-.896-.132 0 .39.205.661.499.661.296 0 .458-.216.397-.529zm-50.585-1.376c.343-.555-.166-1.024-.664-.611-.246.204-.447.497-.447.65 0 .383.869.353 1.11-.039zm49.371 0c0-.174-.357-.317-.794-.317-.436 0-.793.143-.793.317 0 .175.357.318.793.318.437 0 .794-.143.794-.318zm46.99-4.902c0-.335-.61-.476-.79-.183-.11.178.023.323.295.323.272 0 .495-.063.495-.14zm-44.45-2.876c.526-.634-.104-1.43-1.131-1.43-.938 0-1.214.449-.778 1.264.405.756 1.35.838 1.909.166zm11.43-3.334c0-.353-.212-.635-.476-.635-.484 0-.652.671-.265 1.058.403.403.741.21.741-.423zm-3.261-2.414c-.105-.106-.38-.117-.609-.026-.253.102-.178.177.192.192.335.014.523-.061.417-.167zm-2.555-1.138c-.101-.253-.176-.178-.191.192-.014.334.06.522.166.416.106-.105.117-.379.025-.608zm-82.29 45.78c-.108-.175-.802-.318-1.543-.318-.74 0-1.527-.179-1.747-.397-.321-.318-.463-.286-.715.159-.477.847-3.481.76-5.095-.147-.989-.555-1.368-.627-1.82-.345-.314.196-1.595.356-2.846.356-1.93 0-2.326-.094-2.606-.618-.268-.5-.539-.58-1.422-.413-.839.157-1.136.086-1.287-.307-.108-.28-.48-.51-.827-.51-.348 0-1.056-.302-1.574-.671-.865-.617-1.063-.638-2.43-.269-.819.222-1.66.536-1.871.698-.21.163-.528.207-.704.098-.177-.11-.503.093-.725.449-.223.356-.656.647-.963.647-.308 0-.559.143-.559.317a.318.318 0 0 1-.317.318c-.208 0-.318-5.186-.318-14.923 0-9.028.117-14.922.296-14.922.163 0 .342-.393.397-.873.085-.737.233-.86.95-.786.467.048.94-.059 1.05-.238.38-.614 1.094-.325 1.82.735.4.584.896 1.003 1.104.933.208-.071.915.02 1.571.2.985.273 1.296.238 1.778-.199.55-.498.64-.472 1.556.443.534.534 1.068 1.445 1.187 2.025.308 1.508 1.656 1.852 2.728.696.638-.688.844-.757 1.25-.42.268.222.658.877.867 1.455.355.981.456 1.04 1.51.868.62-.1 1.349-.454 1.617-.786.767-.947 2.096-.289 2.523 1.25.184.663.336 1.389.337 1.612.003.756.973.798 1.74.077.95-.893 1.346-.648 1.787 1.103.192.765.602 1.618.91 1.897.516.467.598.445 1.085-.298.699-1.067.928-1.017 1.574.338.453.949.624 1.077 1.011.755.257-.213.467-.562.467-.776 0-.48 1.026-1.439 1.54-1.439.208 0 .54.355.738.788.436.959 1.37.839 3.233-.415 1.19-.801 1.238-.807 1.667-.22.549.75.568 1.416.045 1.577-.218.067-1.088.373-1.934.68-1.465.53-1.528.602-1.35 1.534.213 1.114 2.108 3.041 2.99 3.041.324 0 .744-.34.934-.756.283-.621.589-.759 1.717-.775.917-.012 1.584.177 2.008.57.35.323.984.636 1.41.695.582.08.847.383 1.06 1.21.334 1.296.67.91 1.012-1.162.176-1.065.325-1.291.75-1.135.774.285.997.736 1.003 2.025.005 1.154.991 2.82 1.67 2.82.191 0 .625-.25.963-.555.591-.534.647-.517 1.455.45 1.069 1.28 1.744 1.46 1.77.475.016-.567.304-.84 1.214-1.155.656-.226 1.4-.583 1.653-.793 1.073-.89 1.276.77.24 1.97-.51.588-.582.517 1.06 1.035.836.264.224.712-1.278.937-.784.117-1.521.369-1.639.56-.245.397 1.146 3.11 1.596 3.11.165 0 .568-.244.896-.54.555-.503.657-.504 1.453-.021.513.311.937.914 1.057 1.505.297 1.452 1.138 2.234 2.306 2.146.921-.07.994.002 1.083 1.076.07.822-.048 1.205-.409 1.344-.292.112-.578 0-.68-.264-.122-.317-.457-.4-1.094-.273-.673.135-.972.046-1.117-.331-.128-.334-.574-.515-1.269-.515-.883 0-1.107.142-1.274.81-.18.717-.319.787-1.197.602-.546-.115-1.129-.337-1.295-.493-.166-.156-.541-.284-.834-.284-.293 0-.68-.179-.862-.397-.459-.553-3.848-.48-4.2.09-.148.24-.205.54-.126.667.079.127-.012.327-.201.444-.193.119-.42-.08-.519-.455-.096-.367-.305-.667-.465-.667-.16 0-.407-.314-.549-.698-.257-.696-.26-.695-.82.159-.7 1.068-1.276 1.086-1.946.063-.646-.985-1.484-1.016-2.141-.08-.43.615-.55.648-.846.239-.189-.262-.28-1.012-.202-1.667.077-.655.036-1.19-.093-1.19-.307 0-2.563 2.592-2.563 2.945 0 .15-.272.186-.605.08-.439-.14-.798.08-1.31.799-.555.778-.85.942-1.38.763-.37-.125-1.102-.264-1.626-.308-.524-.044-1.208-.186-1.52-.314-.356-.146-.78-.04-1.136.282-.641.58-1.495.674-1.79.197zm125.588-2.362c-.867-1.044 1.264-2.632 2.493-1.858.771.485.827 1.362.087 1.362-.343 0-.706.214-.807.476-.232.605-1.278.617-1.773.02zm-68.914-1.15c0-.36.142-.565.317-.457.175.108.318.402.318.653 0 .252-.143.458-.318.458-.175 0-.318-.294-.318-.654zm30.017-.912c-.1-.162-.038-.385.14-.495.177-.11.322.024.322.296 0 .558-.19.64-.462.2zm-48.6-2.382c-.447-.448-1.018-.815-1.268-.815s-.695-.365-.988-.813c-.404-.617-.77-.797-1.515-.747-.54.036-1.672.044-2.514.019-1.467-.044-1.526-.082-1.428-.904.08-.674-.053-.894-.627-1.031-.65-.156-.681-.24-.292-.77.358-.49.556-.533 1.106-.238.51.273.728.265.914-.036.165-.267.304-.139.43.396.2.85 1.105 1.103 1.12.314.01-.574.415-1.27.74-1.27.129 0 .403.465.608 1.032.458 1.263 1.608 2.104 2.003 1.465.157-.254.058-.64-.252-.983-.604-.668-.356-1.06.45-.71.313.135.797.22 1.076.186.28-.033.701.173.938.458.367.443.35.563-.11.821-.298.167-.54.546-.539.843.003.616 1.675 1.54 1.848 1.022.113-.339 1.095-.447 1.39-.153.093.093-.012.7-.233 1.349-.522 1.527-1.668 1.753-2.857.565zm105.735.453c-.109-.176.032-.408.312-.515.608-.234.947.023.655.496-.264.427-.71.436-.967.02zm-104.443-4.103c-.1-.163-.037-.386.14-.495.178-.11.323.023.323.295 0 .558-.19.64-.463.2zm56.171-.043c-.115-.187-.133-.415-.04-.508.228-.228.847.173.847.548 0 .405-.548.378-.807-.04zm4.092-1.74c-.104-.269-.103-.575.002-.68.274-.274 1.184.554.977.89-.271.438-.772.331-.98-.21zm-83.454-5.542c.108-.174.26-.317.336-.317.078 0 .14.143.14.317 0 .175-.15.318-.336.318-.185 0-.248-.143-.14-.318zm4.763-.546c-1.08-.256-1.31-.72-.381-.771a70.305 70.305 0 0 0 1.254-.08c.469-.037.543.837.08.935-.175.037-.604 0-.953-.084zm20.182-.684c-.242-.452-.181-.718.253-1.112.695-.628.996-.384.996.808 0 1.044-.754 1.228-1.249.304zm-30.447-1.865c-.157-.306-.222-.735-.143-.953.15-.421 1.356-.562 1.363-.159.003.131.09.56.196.953.154.573.061.714-.47.714-.363 0-.789-.25-.946-.555zm2.363-.022c-.103-.167-.01-.429.206-.582.572-.406 1.59-.33 1.743.129.073.217-.083.395-.345.395-.262 0-.688.082-.947.18-.258.1-.554.045-.657-.122zm27.743-.697c-.272-.508-.237-.68.169-.836.653-.25 1.245.33.997.978-.262.683-.756.623-1.166-.142zm8.257-2.237c0-.185.143-.248.318-.14.175.108.317.26.317.336 0 .077-.142.14-.317.14-.175 0-.318-.15-.318-.336zM96.08 127.284c.097-.252.521-.684.943-.96.516-.338.767-.8.767-1.413 0-.5.25-1.196.556-1.546.734-.842 2.175-1.174 2.412-.555.262.681 2.176.43 3.071-.405.866-.806 1.581-.906 1.581-.22 0 .262.158.476.351.476.198 0 .263-.232.148-.53-.262-.685.414-1.101 1.15-.707.375.2.786.193 1.188-.022.696-.373 1.945-.447 1.442-.086-.179.129-.553.59-.833 1.027-.302.473-1.07.963-1.897 1.211-.765.23-1.935.85-2.601 1.38-1 .796-1.398.93-2.272.766-.897-.168-1.164-.069-1.726.646-.886 1.126-4.67 1.955-4.28.938zm31.238-2.5c0-.406 1.088-2.195 1.41-2.319.214-.082.389-.326.389-.542 0-.536 1.062-2.12 1.422-2.12.478 0 .672.887.45 2.067-.146.778-.378 1.108-.78 1.108-.313 0-.841.3-1.172.665-.575.635-1.72 1.395-1.72 1.142zm52.07-.536c0-.174.142-.317.317-.317.175 0 .317.143.317.317a.318.318 0 0 1-.317.318.318.318 0 0 1-.318-.318zm-12.653-3.175c-.212-.607-.55-.952-.935-.952-.331 0-1.089-.243-1.683-.54-1.077-.539-1.078-.541-.287-.74.553-.14 1.267.065 2.357.678 1.616.907 2.265 1.646 1.928 2.192-.38.613-1.052.302-1.38-.638zm-5.445-3.333c-.726-.415-.738-.455-.14-.465.36-.006.931.198 1.27.454.831.629-.035.637-1.13.01z" fill="#094"/></g></g><g transform="translate(0 -52.917)"><path d="M5.3 198.45c38.693 67.017 162.366 67.016 201.078-.034" id="k" fill="none" stroke-width=".387"/><path d="M36.342 198.439C9.595 152.11 52.34 78.074 105.833 78.074c53.495 0 96.238 74.036 69.503 120.342" id="j" fill="none" stroke-width=".267"/><text style="line-height:1.25" font-weight="400" font-size="10.583" font-family="sans-serif" letter-spacing="0" word-spacing="13.229" fill="#845a12" stroke-width=".265"><textPath xlink:href="#j" style="line-height:10;-inkscape-font-specification:'Qanelas Soft DEMO Ultra-Bold'" font-weight="800" font-size="25.4" font-family="Qanelas Soft DEMO" letter-spacing="7.938" word-spacing="0"><tspan style="line-height:10;-inkscape-font-specification:'Qanelas Soft DEMO Ultra-Bold'" dx="55">OKUMIKAWA</tspan></textPath></text><text style="line-height:1.25" transform="matrix(1.05918 0 0 1.05918 -8.102 -10.585)" font-weight="400" font-size="10.583" font-family="sans-serif" letter-spacing="0" word-spacing="0" fill="#845a12" stroke-width=".265"><textPath xlink:href="#k" style="-inkscape-font-specification:'Qanelas Soft DEMO Ultra-Bold'" font-weight="800" font-size="23.981" font-family="Qanelas Soft DEMO" letter-spacing="7.494"><tspan style="-inkscape-font-specification:'Qanelas Soft DEMO Ultra-Bold'" dx="37">OUTDOOR</tspan></textPath></text></g></svg>